<svg width="416" height="154" viewBox="0 0 416 154" fill="none" xmlns="http://www.w3.org/2000/svg">
<g clip-path="url(#clip0)">
<path d="M64.6464 35.2199L24.128 51.5007L64.6464 68.1137V85.9727L0 59.8903V43.2772L64.6464 17.3608V35.2199Z" fill="#52C0D6"/>
<path d="M129.21 71.6854C126.18 75.7227 122.172 78.9242 117.562 80.9888C113.023 83.1833 108.044 84.3195 103.002 84.3114C98.3969 84.3639 93.8237 83.5465 89.5232 81.9025C85.4477 80.4173 81.7129 78.1292 78.5408 75.1742C75.4367 72.1662 72.9498 68.583 71.2192 64.6249C69.4136 60.2536 68.5082 55.5642 68.5568 50.8361C68.499 46.1071 69.4048 41.4158 71.2192 37.0472C72.9206 33.073 75.4113 29.4843 78.5408 26.4979C81.7083 23.5167 85.4428 21.2006 89.5232 19.6866C93.8396 18.1095 98.4053 17.3217 103.002 17.3607C107.142 17.2807 111.253 18.0732 115.066 19.6866C118.643 21.1905 121.809 23.5257 124.301 26.4979C126.904 29.6073 128.882 33.1893 130.125 37.0472C131.51 41.5107 132.183 46.1637 132.122 50.8361V56.9829H87.6928C88.2714 60.4583 90.0349 63.6274 92.6848 65.9539C95.3121 68.2274 98.6938 69.4416 102.17 69.3596C105.096 69.4819 107.993 68.7299 110.49 67.1999C112.672 65.6719 114.585 63.791 116.147 61.6345L129.21 71.6854ZM112.986 43.6094C113.048 40.5364 111.915 37.559 109.824 35.3028C108.755 34.1715 107.466 33.2709 106.035 32.6565C104.604 32.0422 103.062 31.7272 101.504 31.731C99.5657 31.72 97.6439 32.0868 95.8464 32.8109C94.3114 33.4776 92.9039 34.4051 91.6864 35.552C90.5887 36.6346 89.6878 37.8994 89.024 39.29C88.3806 40.7319 88.0137 42.2816 87.9424 43.8586L112.986 43.6094Z" fill="white"/>
<path d="M134.368 18.9389H153.587V29.1559C155.243 25.6517 157.727 22.6016 160.826 20.2679C163.996 18.2375 167.711 17.223 171.475 17.3606H174.72C175.74 17.4175 176.748 17.6131 177.715 17.9421V35.9672L173.722 34.9705C172.336 34.8816 170.947 34.8816 169.562 34.9705C166.708 34.9067 163.873 35.4445 161.242 36.5487C159.212 37.5091 157.506 39.0389 156.333 40.9512C155.096 43.0313 154.33 45.3559 154.086 47.7625C153.751 50.5187 153.584 53.2926 153.587 56.069V83.0653H134.368V18.9389Z" fill="white"/>
<path d="M181.792 18.9391H200.179V27.2456C200.897 25.9335 201.763 24.7073 202.758 23.5907C203.919 22.2932 205.265 21.1737 206.752 20.2681C208.389 19.2649 210.151 18.4828 211.994 17.9423C214.036 17.2907 216.173 16.9819 218.317 17.0286C222.375 16.8608 226.418 17.6283 230.131 19.2714C232.969 20.7424 235.355 22.9525 237.037 25.6674C238.789 28.5981 239.948 31.8436 240.448 35.2199C241.051 39.2893 241.329 43.4001 241.28 47.5135V83.0655H222.394V51.5007C222.394 49.6732 222.394 47.7627 222.394 45.7692C222.319 43.8891 221.925 42.0353 221.229 40.2869C220.664 38.6819 219.654 37.2703 218.317 36.2167C216.651 35.0954 214.666 34.5418 212.659 34.6384C210.571 34.5518 208.498 35.0403 206.669 36.0505C205.161 36.915 203.922 38.1802 203.091 39.7054C202.292 41.356 201.759 43.1221 201.51 44.9385C201.381 46.93 201.381 48.9277 201.51 50.9192V83.0655H181.792V18.9391Z" fill="white"/>
<path d="M308.256 71.6854C305.227 75.7227 301.218 78.9242 296.608 80.9888C292.069 83.1833 287.091 84.3195 282.048 84.3114C277.443 84.3639 272.87 83.5465 268.57 81.9025C264.612 80.3781 260.994 78.092 257.92 75.1742C254.816 72.1662 252.329 68.583 250.598 64.6249C248.793 60.2536 247.887 55.5642 247.936 50.8361C247.878 46.1071 248.784 41.4158 250.598 37.0472C252.3 33.073 254.79 29.4843 257.92 26.4979C261.087 23.5167 264.822 21.2006 268.902 19.6866C273.219 18.1095 277.785 17.3217 282.381 17.3607C286.521 17.2807 290.632 18.0732 294.445 19.6866C298.022 21.1905 301.189 23.5257 303.68 26.4979C306.283 29.6073 308.261 33.1893 309.504 37.0472C310.889 41.5107 311.563 46.1637 311.501 50.8361V56.9829H266.739C267.318 60.4583 269.081 63.6274 271.731 65.9539C274.358 68.2274 277.74 69.4416 281.216 69.3596C284.146 69.5135 287.052 68.7591 289.536 67.1999C291.763 65.6972 293.707 63.8131 295.277 61.6345L308.256 71.6854ZM292.032 43.6094C292.094 40.5364 290.961 37.559 288.87 35.3028C287.802 34.1715 286.512 33.2709 285.081 32.6565C283.65 32.0422 282.108 31.7272 280.55 31.731C278.612 31.72 276.69 32.0868 274.893 32.8109C273.358 33.4776 271.95 34.4051 270.733 35.552C269.635 36.6346 268.734 37.8994 268.07 39.29C267.427 40.7319 267.06 42.2816 266.989 43.8586L292.032 43.6094Z" fill="white"/>
<path d="M353.267 37.7117C351.985 35.9987 350.312 34.6154 348.388 33.6764C346.464 32.7374 344.343 32.2699 342.201 32.3125C340.551 32.322 338.926 32.7204 337.459 33.4754C336.713 33.8496 336.093 34.4354 335.679 35.1594C335.265 35.8835 335.073 36.7135 335.129 37.5456C335.13 38.3026 335.362 39.0415 335.793 39.6645C336.223 40.2875 336.834 40.7651 337.542 41.0343C339.467 41.8978 341.474 42.5657 343.533 43.0279L351.27 44.8553C354.018 45.4792 356.655 46.5155 359.091 47.9287C361.508 49.3466 363.56 51.3094 365.081 53.6602C366.804 56.5708 367.642 59.9184 367.494 63.2958C367.618 66.8872 366.693 70.4371 364.832 73.5128C363.1 76.1271 360.795 78.3142 358.093 79.9089C355.26 81.5592 352.164 82.7112 348.941 83.3145C345.625 83.9711 342.254 84.3049 338.873 84.3113C334.424 84.2879 329.999 83.6449 325.728 82.4008C321.42 81.2681 317.524 78.9344 314.496 75.6725L326.061 62.3821C327.68 64.493 329.72 66.2464 332.051 67.5321C334.366 68.8049 336.98 69.4358 339.622 69.3596C341.663 69.3878 343.692 69.0501 345.613 68.3628C346.41 68.1534 347.111 67.6752 347.596 67.0092C348.082 66.3431 348.321 65.5302 348.275 64.7079C348.297 63.9253 348.088 63.1536 347.674 62.4888C347.26 61.8241 346.658 61.2959 345.945 60.97C344.04 60.039 342.028 59.3417 339.955 58.8933L332.134 57.0659C329.469 56.3887 326.898 55.3843 324.48 54.0756C322.033 52.7712 319.968 50.8531 318.489 48.5102C316.796 45.5908 315.987 42.2438 316.16 38.8746C316.063 35.6346 316.772 32.4211 318.224 29.5219C319.676 26.6226 321.825 24.1281 324.48 22.2616C327.003 20.5026 329.82 19.2085 332.8 18.4406C335.922 17.6131 339.138 17.1943 342.368 17.1946C346.567 17.1963 350.744 17.812 354.765 19.022C358.832 20.1806 362.492 22.454 365.331 25.5842L353.267 37.7117Z" fill="white"/>
<path d="M416 34.6382H399.36V55.9029C399.267 57.5075 399.267 59.1161 399.36 60.7207C399.483 62.0341 399.88 63.3073 400.525 64.4586C401.121 65.5645 402.095 66.4195 403.27 66.8675C404.822 67.5203 406.496 67.8319 408.179 67.7813H412.173C413.6 67.5578 414.93 66.9226 416 65.9538V82.5669C413.861 83.3848 411.623 83.9155 409.344 84.1451C407.106 84.4025 404.857 84.5411 402.605 84.5604C399.472 84.4879 396.364 83.9848 393.369 83.0653C390.789 82.4377 388.358 81.3087 386.214 79.7427C384.137 78.1975 382.502 76.1353 381.472 73.762C380.231 70.9671 379.634 67.9298 379.725 64.874V34.6382H367.494V18.9389H379.725V7.14361L398.861 0V18.9389H415.501L416 34.6382Z" fill="white"/>
<path d="M355.098 72.1837H365.581L336.544 153.422L325.229 149.517L355.098 72.1837Z" fill="#52C0D6"/>
<path d="M365.498 124.016L397.114 111.64L365.498 99.2628V85.474L416 105.244V117.786L365.498 137.556V124.016Z" fill="#52C0D6"/>
<path d="M29.2033 87.8829H44.1793V95.6911C45.5183 93.0168 47.4885 90.7077 49.9201 88.9628C52.4053 87.3989 55.3042 86.6174 58.2401 86.72H60.8193C61.6371 86.7631 62.447 86.9025 63.2321 87.1353V100.758C62.1983 100.431 61.1415 100.181 60.0705 100.01C58.9907 99.9218 57.9055 99.9218 56.8257 100.01C54.5136 99.909 52.2088 100.335 50.0865 101.256C48.4896 101.965 47.1317 103.119 46.1761 104.579C45.285 106.175 44.6929 107.921 44.4289 109.729C44.2937 111.914 44.2937 114.106 44.4289 116.291V136.476H29.2033V87.8829Z" fill="white"/>
<path d="M116.48 136.31H102.17V129.748C101.564 130.916 100.778 131.981 99.84 132.905C98.9433 133.883 97.9059 134.723 96.7616 135.397C95.4964 136.176 94.1226 136.764 92.6848 137.141C91.072 137.657 89.3863 137.909 87.6928 137.888C84.5215 138.018 81.3624 137.421 78.4576 136.144C76.236 135.046 74.3424 133.385 72.9664 131.326C71.5908 129.103 70.7111 126.61 70.3872 124.017C69.9433 121.019 69.7209 117.993 69.7216 114.962V87.8832H84.6976V111.64C84.6976 113.052 84.6976 114.464 84.6976 115.959C84.776 117.384 85.0851 118.787 85.6128 120.113C86.0658 121.492 86.9871 122.67 88.2175 123.444C89.448 124.217 90.9103 124.537 92.352 124.349C93.9651 124.422 95.5697 124.078 97.0112 123.352C98.1398 122.644 99.0815 121.675 99.7568 120.528C100.431 119.323 100.855 117.995 101.005 116.624C101.09 115.102 101.09 113.577 101.005 112.055V87.8832H116.48V136.31Z" fill="white"/>
<path d="M173.971 136.31H160.243V129.997C159.661 131.062 158.933 132.04 158.08 132.904C157.06 133.884 155.913 134.723 154.669 135.396C153.342 136.17 151.914 136.757 150.426 137.141C148.866 137.638 147.238 137.89 145.6 137.888C142.238 137.945 138.898 137.324 135.782 136.061C132.913 134.858 130.328 133.069 128.193 130.808C126.058 128.548 124.42 125.867 123.386 122.936C122.261 119.705 121.698 116.306 121.722 112.885C121.705 109.587 122.211 106.307 123.219 103.167C124.171 100.153 125.666 97.3386 127.629 94.8603C129.519 92.4705 131.902 90.5156 134.618 89.1288C137.459 87.6293 140.64 86.8855 143.853 86.9691C146.823 86.9515 149.776 87.4287 152.589 88.3812C155.258 89.3387 157.577 91.0752 159.245 93.3651V68.4455L174.221 61.0527L173.971 136.31ZM160.243 112.138C160.379 108.879 159.246 105.694 157.082 103.25C155.95 102.064 154.578 101.132 153.057 100.516C151.537 99.9004 149.902 99.6147 148.262 99.6781C146.634 99.5826 145.004 99.8373 143.482 100.425C141.961 101.012 140.584 101.919 139.443 103.084C138.356 104.285 137.517 105.688 136.975 107.213C136.432 108.738 136.197 110.355 136.282 111.972C136.119 115.235 137.256 118.43 139.443 120.86C140.591 122.009 141.972 122.901 143.493 123.474C145.014 124.047 146.64 124.288 148.262 124.182C149.884 124.283 151.509 124.039 153.029 123.466C154.55 122.893 155.931 122.005 157.082 120.86C159.191 118.45 160.319 115.338 160.243 112.138Z" fill="white"/>
<path d="M177.549 121.442L202.509 99.8446H178.214V87.8832H219.814V102.253L193.773 124.598H220.73V136.559H177.549V121.442Z" fill="white"/>
<path d="M223.975 107.071L238.535 95.8572V136.061H223.975V107.071Z" fill="white"/>
<path d="M291.2 127.422C288.769 130.448 285.663 132.866 282.131 134.483C278.555 136.121 274.668 136.971 270.733 136.974C267.129 137.01 263.548 136.391 260.166 135.147C257.08 133.995 254.252 132.245 251.846 129.997C249.369 127.662 247.412 124.832 246.106 121.69C244.663 118.393 243.954 114.822 244.026 111.224C243.954 107.626 244.663 104.056 246.106 100.758C247.432 97.6272 249.385 94.8004 251.846 92.4515C254.271 90.2283 257.094 88.4812 260.166 87.3014C263.564 86.1243 267.137 85.5344 270.733 85.5571C273.951 85.5109 277.147 86.1039 280.134 87.3014C282.895 88.4704 285.365 90.2282 287.373 92.4515C289.429 94.8805 290.959 97.7089 291.866 100.758C292.98 104.133 293.515 107.671 293.446 111.224V116.291H259.002C259.461 118.95 260.846 121.362 262.912 123.103C264.967 124.863 267.612 125.782 270.317 125.678C272.512 125.722 274.675 125.146 276.557 124.016C278.276 122.888 279.771 121.452 280.966 119.78L291.2 127.422ZM278.554 106.074C278.585 104.883 278.381 103.698 277.952 102.586C277.524 101.475 276.88 100.458 276.058 99.5951C275.191 98.6901 274.143 97.978 272.981 97.5056C271.82 97.0333 270.572 96.8112 269.318 96.8539C267.81 96.8569 266.315 97.1386 264.909 97.6846C263.711 98.1773 262.612 98.8806 261.664 99.7612C260.809 100.573 260.105 101.529 259.584 102.585C259.103 103.69 258.821 104.871 258.752 106.074H278.554Z" fill="white"/>
<path d="M331.053 102.918C330.134 101.867 328.994 101.031 327.713 100.471C326.433 99.911 325.045 99.6403 323.648 99.6784C322.021 99.5937 320.394 99.8533 318.874 100.44C317.354 101.027 315.976 101.928 314.829 103.084C312.665 105.528 311.532 108.713 311.667 111.972C311.549 115.229 312.68 118.408 314.829 120.86C315.98 122.005 317.361 122.894 318.881 123.467C320.401 124.039 322.026 124.283 323.648 124.183C325.162 124.222 326.658 123.849 327.974 123.103C329.125 122.405 330.163 121.537 331.053 120.528L341.12 130.496C338.844 132.871 335.97 134.592 332.8 135.48C329.872 136.441 326.813 136.945 323.731 136.975C320.154 137.01 316.601 136.39 313.248 135.147C310.151 134.016 307.32 132.263 304.928 129.997C302.396 127.71 300.431 124.866 299.187 121.691C297.729 118.395 296.992 114.827 297.024 111.224C296.979 107.621 297.717 104.05 299.187 100.758C300.441 97.5885 302.405 94.7472 304.928 92.4517C307.334 90.2036 310.161 88.4532 313.248 87.3017C316.616 86.1243 320.162 85.5343 323.731 85.5573C326.806 85.5977 329.859 86.0732 332.8 86.9694C335.962 87.9201 338.826 89.6647 341.12 92.0364L331.053 102.918Z" fill="white"/>
<path d="M223.975 101.423L238.618 90.2921V87.8832H223.975V101.423Z" fill="white"/>
</g>
<defs>
<clipPath id="clip0">
<rect width="416" height="153.255" fill="white"/>
</clipPath>
</defs>
</svg>
