<svg width="283" height="48" viewBox="0 0 283 48" fill="none" xmlns="http://www.w3.org/2000/svg">
<rect y="12" width="32" height="32" rx="2" fill="url(#paint0_linear)"/>
<path d="M7.8386 18.7273H6.20863L4.41531 19.8423V21.3622L6.04173 20.3679H6.08434V26H7.8386V18.7273ZM12.4542 26.1776C14.3576 26.1811 15.5259 24.7749 15.5295 22.3743C15.533 19.9879 14.3576 18.6278 12.4542 18.6278C10.5508 18.6278 9.38601 19.9844 9.38246 22.3743C9.37536 24.7678 10.5508 26.1776 12.4542 26.1776ZM12.4542 24.7393C11.6978 24.7393 11.1829 23.9794 11.19 22.3743C11.1935 20.8011 11.7013 20.0554 12.4542 20.0554C13.2106 20.0554 13.7184 20.8011 13.7219 22.3743C13.7255 23.9794 13.2141 24.7393 12.4542 24.7393ZM19.8991 18.7273H18.2692L16.4759 19.8423V21.3622L18.1023 20.3679H18.1449V26H19.8991V18.7273ZM24.5147 26.1776C26.4181 26.1811 27.5865 24.7749 27.59 22.3743C27.5936 19.9879 26.4181 18.6278 24.5147 18.6278C22.6113 18.6278 21.4466 19.9844 21.443 22.3743C21.4359 24.7678 22.6113 26.1776 24.5147 26.1776ZM24.5147 24.7393C23.7583 24.7393 23.2434 23.9794 23.2505 22.3743C23.2541 20.8011 23.7619 20.0554 24.5147 20.0554C25.2711 20.0554 25.7789 20.8011 25.7825 22.3743C25.786 23.9794 25.2747 24.7393 24.5147 24.7393ZM8.89817 30.7273H7.2682L5.47488 31.8423V33.3622L7.1013 32.3679H7.14391V38H8.89817V30.7273ZM13.8689 30.7273H12.2389L10.4456 31.8423V33.3622L12.072 32.3679H12.1146V38H13.8689V30.7273ZM18.4845 38.1776C20.3879 38.1811 21.5562 36.7749 21.5597 34.3743C21.5633 31.9879 20.3879 30.6278 18.4845 30.6278C16.5811 30.6278 15.4163 31.9844 15.4127 34.3743C15.4056 36.7678 16.5811 38.1776 18.4845 38.1776ZM18.4845 36.7393C17.7281 36.7393 17.2132 35.9794 17.2203 34.3743C17.2238 32.8011 17.7316 32.0554 18.4845 32.0554C19.2409 32.0554 19.7487 32.8011 19.7522 34.3743C19.7558 35.9794 19.2444 36.7393 18.4845 36.7393ZM25.9294 30.7273H24.2994L22.5061 31.8423V33.3622L24.1325 32.3679H24.1752V38H25.9294V30.7273Z" fill="white"/>
<path d="M45.9289 19.42H50.0689V21.34H50.1289C50.3089 21.08 50.5389 20.82 50.8189 20.56C51.1189 20.28 51.4589 20.03 51.8389 19.81C52.2389 19.59 52.6689 19.41 53.1289 19.27C53.5889 19.13 54.0789 19.06 54.5989 19.06C55.6789 19.06 56.6589 19.25 57.5389 19.63C58.4189 19.99 59.1689 20.51 59.7889 21.19C60.4289 21.85 60.9189 22.64 61.2589 23.56C61.5989 24.48 61.7689 25.49 61.7689 26.59C61.7689 27.61 61.6089 28.59 61.2889 29.53C60.9889 30.45 60.5489 31.27 59.9689 31.99C59.4089 32.71 58.7189 33.29 57.8989 33.73C57.0789 34.15 56.1489 34.36 55.1089 34.36C54.1689 34.36 53.2889 34.22 52.4689 33.94C51.6689 33.64 51.0089 33.14 50.4889 32.44H50.4289V40.84H45.9289V19.42ZM50.0689 26.71C50.0689 27.81 50.3789 28.7 50.9989 29.38C51.6389 30.06 52.5289 30.4 53.6689 30.4C54.8089 30.4 55.6889 30.06 56.3089 29.38C56.9489 28.7 57.2689 27.81 57.2689 26.71C57.2689 25.61 56.9489 24.72 56.3089 24.04C55.6889 23.36 54.8089 23.02 53.6689 23.02C52.5289 23.02 51.6389 23.36 50.9989 24.04C50.3789 24.72 50.0689 25.61 50.0689 26.71ZM64.4054 19.42H68.9054V21.76H68.9654C69.4454 20.86 70.0154 20.19 70.6754 19.75C71.3354 19.29 72.1654 19.06 73.1654 19.06C73.4254 19.06 73.6854 19.07 73.9454 19.09C74.2054 19.11 74.4454 19.15 74.6654 19.21V23.32C74.3454 23.22 74.0254 23.15 73.7054 23.11C73.4054 23.05 73.0854 23.02 72.7454 23.02C71.8854 23.02 71.2054 23.14 70.7054 23.38C70.2054 23.62 69.8154 23.96 69.5354 24.4C69.2754 24.82 69.1054 25.33 69.0254 25.93C68.9454 26.53 68.9054 27.19 68.9054 27.91V34H64.4054V19.42ZM75.5549 26.71C75.5549 25.55 75.7649 24.5 76.1849 23.56C76.6049 22.62 77.1749 21.82 77.8949 21.16C78.6349 20.48 79.4949 19.96 80.4749 19.6C81.4749 19.24 82.5349 19.06 83.6549 19.06C84.7749 19.06 85.8249 19.24 86.8049 19.6C87.8049 19.96 88.6649 20.48 89.3849 21.16C90.1249 21.82 90.7049 22.62 91.1249 23.56C91.5449 24.5 91.7549 25.55 91.7549 26.71C91.7549 27.87 91.5449 28.92 91.1249 29.86C90.7049 30.8 90.1249 31.61 89.3849 32.29C88.6649 32.95 87.8049 33.46 86.8049 33.82C85.8249 34.18 84.7749 34.36 83.6549 34.36C82.5349 34.36 81.4749 34.18 80.4749 33.82C79.4949 33.46 78.6349 32.95 77.8949 32.29C77.1749 31.61 76.6049 30.8 76.1849 29.86C75.7649 28.92 75.5549 27.87 75.5549 26.71ZM80.0549 26.71C80.0549 27.81 80.3649 28.7 80.9849 29.38C81.6249 30.06 82.5149 30.4 83.6549 30.4C84.7949 30.4 85.6749 30.06 86.2949 29.38C86.9349 28.7 87.2549 27.81 87.2549 26.71C87.2549 25.61 86.9349 24.72 86.2949 24.04C85.6749 23.36 84.7949 23.02 83.6549 23.02C82.5149 23.02 81.6249 23.36 80.9849 24.04C80.3649 24.72 80.0549 25.61 80.0549 26.71ZM109.705 32.77C109.705 35.53 109.005 37.62 107.605 39.04C106.225 40.48 104.115 41.2 101.275 41.2C99.9754 41.2 98.6954 41.05 97.4354 40.75C96.1754 40.47 95.0154 39.91 93.9554 39.07L96.4454 35.35C97.1454 35.93 97.8754 36.39 98.6354 36.73C99.4154 37.07 100.265 37.24 101.185 37.24C102.565 37.24 103.575 36.9 104.215 36.22C104.875 35.56 105.205 34.71 105.205 33.67V32.26H105.145C104.625 32.96 103.975 33.46 103.195 33.76C102.435 34.04 101.715 34.18 101.035 34.18C99.9554 34.18 98.9754 34 98.0954 33.64C97.2154 33.26 96.4554 32.74 95.8154 32.08C95.1954 31.4 94.7154 30.6 94.3754 29.68C94.0354 28.76 93.8654 27.75 93.8654 26.65C93.8654 25.69 94.0154 24.75 94.3154 23.83C94.6354 22.91 95.0754 22.1 95.6354 21.4C96.2154 20.7 96.9154 20.14 97.7354 19.72C98.5554 19.28 99.4854 19.06 100.525 19.06C101.165 19.06 101.745 19.13 102.265 19.27C102.805 19.41 103.285 19.59 103.705 19.81C104.125 20.03 104.485 20.28 104.785 20.56C105.085 20.82 105.325 21.08 105.505 21.34H105.565V19.42H109.705V32.77ZM98.3654 26.62C98.3654 27.1 98.4554 27.56 98.6354 28C98.8154 28.42 99.0654 28.8 99.3854 29.14C99.7254 29.46 100.105 29.72 100.525 29.92C100.965 30.12 101.445 30.22 101.965 30.22C102.465 30.22 102.935 30.12 103.375 29.92C103.815 29.72 104.195 29.46 104.515 29.14C104.855 28.8 105.115 28.42 105.295 28C105.475 27.56 105.565 27.1 105.565 26.62C105.565 26.14 105.475 25.69 105.295 25.27C105.115 24.83 104.855 24.45 104.515 24.13C104.195 23.79 103.815 23.52 103.375 23.32C102.935 23.12 102.465 23.02 101.965 23.02C101.445 23.02 100.965 23.12 100.525 23.32C100.105 23.52 99.7254 23.79 99.3854 24.13C99.0654 24.45 98.8154 24.83 98.6354 25.27C98.4554 25.69 98.3654 26.14 98.3654 26.62ZM113.302 19.42H117.802V21.76H117.862C118.342 20.86 118.912 20.19 119.572 19.75C120.232 19.29 121.062 19.06 122.062 19.06C122.322 19.06 122.582 19.07 122.842 19.09C123.102 19.11 123.342 19.15 123.562 19.21V23.32C123.242 23.22 122.922 23.15 122.602 23.11C122.302 23.05 121.982 23.02 121.642 23.02C120.782 23.02 120.102 23.14 119.602 23.38C119.102 23.62 118.712 23.96 118.432 24.4C118.172 24.82 118.002 25.33 117.922 25.93C117.842 26.53 117.802 27.19 117.802 27.91V34H113.302V19.42ZM134.669 32.17H134.609C134.109 32.95 133.439 33.51 132.599 33.85C131.779 34.19 130.909 34.36 129.989 34.36C129.309 34.36 128.649 34.26 128.009 34.06C127.389 33.88 126.839 33.6 126.359 33.22C125.879 32.84 125.499 32.37 125.219 31.81C124.939 31.25 124.799 30.6 124.799 29.86C124.799 29.02 124.949 28.31 125.249 27.73C125.569 27.15 125.989 26.67 126.509 26.29C127.049 25.91 127.659 25.62 128.339 25.42C129.019 25.2 129.719 25.04 130.439 24.94C131.179 24.84 131.909 24.78 132.629 24.76C133.369 24.74 134.049 24.73 134.669 24.73C134.669 23.93 134.379 23.3 133.799 22.84C133.239 22.36 132.569 22.12 131.789 22.12C131.049 22.12 130.369 22.28 129.749 22.6C129.149 22.9 128.609 23.32 128.129 23.86L125.729 21.4C126.569 20.62 127.549 20.04 128.669 19.66C129.789 19.26 130.949 19.06 132.149 19.06C133.469 19.06 134.549 19.23 135.389 19.57C136.249 19.89 136.929 20.37 137.429 21.01C137.949 21.65 138.309 22.44 138.509 23.38C138.709 24.3 138.809 25.37 138.809 26.59V34H134.669V32.17ZM133.559 27.61C133.219 27.61 132.789 27.63 132.269 27.67C131.769 27.69 131.279 27.77 130.799 27.91C130.339 28.05 129.939 28.26 129.599 28.54C129.279 28.82 129.119 29.21 129.119 29.71C129.119 30.25 129.349 30.65 129.809 30.91C130.269 31.17 130.749 31.3 131.249 31.3C131.689 31.3 132.109 31.24 132.509 31.12C132.929 31 133.299 30.83 133.619 30.61C133.939 30.39 134.189 30.11 134.369 29.77C134.569 29.43 134.669 29.03 134.669 28.57V27.61H133.559ZM141.632 19.42H145.952V21.4H146.012C146.152 21.12 146.352 20.84 146.612 20.56C146.872 20.28 147.182 20.03 147.542 19.81C147.902 19.59 148.312 19.41 148.772 19.27C149.232 19.13 149.732 19.06 150.272 19.06C151.292 19.06 152.192 19.27 152.972 19.69C153.772 20.11 154.372 20.77 154.772 21.67C155.292 20.73 155.922 20.06 156.662 19.66C157.402 19.26 158.312 19.06 159.392 19.06C160.372 19.06 161.192 19.23 161.852 19.57C162.532 19.89 163.062 20.34 163.442 20.92C163.842 21.48 164.122 22.15 164.282 22.93C164.462 23.69 164.552 24.51 164.552 25.39V34H160.052V25.51C160.052 24.83 159.902 24.25 159.602 23.77C159.322 23.27 158.812 23.02 158.072 23.02C157.552 23.02 157.112 23.11 156.752 23.29C156.412 23.45 156.132 23.68 155.912 23.98C155.712 24.28 155.562 24.63 155.462 25.03C155.382 25.43 155.342 25.85 155.342 26.29V34H150.842V26.29C150.842 26.03 150.832 25.71 150.812 25.33C150.792 24.95 150.722 24.59 150.602 24.25C150.482 23.91 150.282 23.62 150.002 23.38C149.742 23.14 149.352 23.02 148.832 23.02C148.252 23.02 147.782 23.13 147.422 23.35C147.062 23.55 146.782 23.83 146.582 24.19C146.402 24.53 146.282 24.92 146.222 25.36C146.162 25.8 146.132 26.26 146.132 26.74V34H141.632V19.42ZM167.796 19.42H172.296V34H167.796V19.42ZM167.436 14.83C167.436 14.11 167.686 13.5 168.186 13C168.706 12.48 169.326 12.22 170.046 12.22C170.766 12.22 171.376 12.48 171.876 13C172.396 13.5 172.656 14.11 172.656 14.83C172.656 15.55 172.396 16.17 171.876 16.69C171.376 17.19 170.766 17.44 170.046 17.44C169.326 17.44 168.706 17.19 168.186 16.69C167.686 16.17 167.436 15.55 167.436 14.83ZM183.778 23.71C183.118 22.89 182.248 22.48 181.168 22.48C180.788 22.48 180.418 22.57 180.058 22.75C179.698 22.93 179.518 23.24 179.518 23.68C179.518 24.04 179.698 24.31 180.058 24.49C180.438 24.65 180.908 24.8 181.468 24.94C182.048 25.06 182.658 25.2 183.298 25.36C183.958 25.5 184.568 25.73 185.128 26.05C185.708 26.37 186.178 26.81 186.538 27.37C186.918 27.91 187.108 28.64 187.108 29.56C187.108 30.5 186.898 31.28 186.478 31.9C186.078 32.5 185.558 32.99 184.918 33.37C184.278 33.73 183.558 33.98 182.758 34.12C181.958 34.28 181.168 34.36 180.388 34.36C179.368 34.36 178.338 34.22 177.298 33.94C176.258 33.64 175.378 33.12 174.658 32.38L177.388 29.35C177.808 29.87 178.268 30.27 178.768 30.55C179.288 30.81 179.888 30.94 180.568 30.94C181.088 30.94 181.558 30.87 181.978 30.73C182.398 30.57 182.608 30.29 182.608 29.89C182.608 29.51 182.418 29.23 182.038 29.05C181.678 28.85 181.208 28.69 180.628 28.57C180.068 28.43 179.458 28.29 178.798 28.15C178.158 27.99 177.548 27.76 176.968 27.46C176.408 27.16 175.938 26.74 175.558 26.2C175.198 25.64 175.018 24.9 175.018 23.98C175.018 23.12 175.188 22.38 175.528 21.76C175.888 21.14 176.348 20.63 176.908 20.23C177.488 19.83 178.148 19.54 178.888 19.36C179.628 19.16 180.378 19.06 181.138 19.06C182.098 19.06 183.068 19.2 184.048 19.48C185.028 19.76 185.858 20.26 186.538 20.98L183.778 23.71ZM199.345 23.02H195.385V27.88C195.385 28.28 195.405 28.65 195.445 28.99C195.485 29.31 195.575 29.59 195.715 29.83C195.855 30.07 196.065 30.26 196.345 30.4C196.645 30.52 197.035 30.58 197.515 30.58C197.755 30.58 198.065 30.56 198.445 30.52C198.845 30.46 199.145 30.34 199.345 30.16V33.91C198.845 34.09 198.325 34.21 197.785 34.27C197.245 34.33 196.715 34.36 196.195 34.36C195.435 34.36 194.735 34.28 194.095 34.12C193.455 33.96 192.895 33.71 192.415 33.37C191.935 33.01 191.555 32.55 191.275 31.99C191.015 31.43 190.885 30.75 190.885 29.95V23.02H188.005V19.42H190.885V15.1H195.385V19.42H199.345V23.02ZM210.032 36.37C209.732 37.15 209.442 37.84 209.162 38.44C208.882 39.04 208.522 39.54 208.082 39.94C207.662 40.36 207.122 40.67 206.462 40.87C205.802 41.09 204.932 41.2 203.852 41.2C202.692 41.2 201.572 41.02 200.492 40.66L201.092 36.97C201.772 37.27 202.472 37.42 203.192 37.42C203.692 37.42 204.102 37.36 204.422 37.24C204.742 37.14 205.002 36.98 205.202 36.76C205.422 36.56 205.602 36.31 205.742 36.01C205.882 35.71 206.032 35.36 206.192 34.96L206.522 34.12L200.132 19.42H204.992L208.742 29.05H208.802L212.012 19.42H216.632L210.032 36.37ZM228.172 24.13C227.952 23.81 227.642 23.55 227.242 23.35C226.842 23.13 226.412 23.02 225.952 23.02C224.812 23.02 223.922 23.36 223.282 24.04C222.662 24.72 222.352 25.61 222.352 26.71C222.352 27.81 222.662 28.7 223.282 29.38C223.922 30.06 224.812 30.4 225.952 30.4C226.452 30.4 226.882 30.29 227.242 30.07C227.602 29.85 227.912 29.59 228.172 29.29L231.142 32.41C230.442 33.13 229.612 33.64 228.652 33.94C227.712 34.22 226.812 34.36 225.952 34.36C224.832 34.36 223.772 34.18 222.772 33.82C221.792 33.46 220.932 32.95 220.192 32.29C219.472 31.61 218.902 30.8 218.482 29.86C218.062 28.92 217.852 27.87 217.852 26.71C217.852 25.55 218.062 24.5 218.482 23.56C218.902 22.62 219.472 21.82 220.192 21.16C220.932 20.48 221.792 19.96 222.772 19.6C223.772 19.24 224.832 19.06 225.952 19.06C226.812 19.06 227.712 19.21 228.652 19.51C229.612 19.79 230.442 20.29 231.142 21.01L228.172 24.13ZM232.205 29.5L239.765 23.02H232.385V19.42H244.985V23.74L237.065 30.4H245.165V34H232.205V29.5ZM247.775 19.42H252.095V21.4H252.155C252.295 21.12 252.495 20.84 252.755 20.56C253.015 20.28 253.325 20.03 253.685 19.81C254.045 19.59 254.455 19.41 254.915 19.27C255.375 19.13 255.875 19.06 256.415 19.06C257.555 19.06 258.475 19.24 259.175 19.6C259.875 19.94 260.415 20.42 260.795 21.04C261.195 21.66 261.465 22.39 261.605 23.23C261.745 24.07 261.815 24.98 261.815 25.96V34H257.315V26.86C257.315 26.44 257.295 26.01 257.255 25.57C257.235 25.11 257.145 24.69 256.985 24.31C256.845 23.93 256.615 23.62 256.295 23.38C255.995 23.14 255.555 23.02 254.975 23.02C254.395 23.02 253.925 23.13 253.565 23.35C253.205 23.55 252.925 23.83 252.725 24.19C252.545 24.53 252.425 24.92 252.365 25.36C252.305 25.8 252.275 26.26 252.275 26.74V34H247.775V19.42ZM273.401 36.37C273.101 37.15 272.811 37.84 272.531 38.44C272.251 39.04 271.891 39.54 271.451 39.94C271.031 40.36 270.491 40.67 269.831 40.87C269.171 41.09 268.301 41.2 267.221 41.2C266.061 41.2 264.941 41.02 263.861 40.66L264.461 36.97C265.141 37.27 265.841 37.42 266.561 37.42C267.061 37.42 267.471 37.36 267.791 37.24C268.111 37.14 268.371 36.98 268.571 36.76C268.791 36.56 268.971 36.31 269.111 36.01C269.251 35.71 269.401 35.36 269.561 34.96L269.891 34.12L263.501 19.42H268.361L272.111 29.05H272.171L275.381 19.42H280.001L273.401 36.37Z" fill="#353535"/>
<defs>
<linearGradient id="paint0_linear" x1="16" y1="12" x2="16" y2="44" gradientUnits="userSpaceOnUse">
<stop stop-color="#0F2027"/>
<stop offset="0.484375" stop-color="#203A43"/>
<stop offset="1" stop-color="#2C5364"/>
</linearGradient>
</defs>
</svg>
