<svg xmlns="http://www.w3.org/2000/svg" viewBox="0 0 50 18.47"><defs><style>.cls-1{fill:#52c0d6;}.cls-2{fill:#111126;}.cls-3{fill:#121326;}.cls-4{fill:#121225;}</style></defs><title>Zasób 1</title><g id="Warstwa_2" data-name="Warstwa 2"><g id="Warstwa_1-2" data-name="Warstwa 1"><g id="Warstwa_2-2" data-name="Warstwa 2"><g id="Warstwa_1-2-2" data-name="Warstwa 1-2"><path class="cls-1" d="M7.77,4.24,2.9,6.2h0l4.87,2v2.15L0,7.21v-2L7.77,2.09Z"/><path class="cls-2" d="M15.53,8.63a3.56,3.56,0,0,1-1.4,1.12,4.08,4.08,0,0,1-1.75.4,4.3,4.3,0,0,1-1.62-.29,3.83,3.83,0,0,1-1.32-.81,4,4,0,0,1-.88-1.27,4.13,4.13,0,0,1-.32-1.66,4.13,4.13,0,0,1,.32-1.66,3.72,3.72,0,0,1,.88-1.27,3.86,3.86,0,0,1,1.32-.82,4.72,4.72,0,0,1,1.62-.28,3.6,3.6,0,0,1,1.45.28,2.9,2.9,0,0,1,1.11.82,3.85,3.85,0,0,1,.7,1.27,5.21,5.21,0,0,1,.24,1.66v.74H10.54a1.83,1.83,0,0,0,.6,1.08,1.7,1.7,0,0,0,1.14.41,1.85,1.85,0,0,0,1-.26A2.88,2.88,0,0,0,14,7.42ZM13.58,5.25a1.42,1.42,0,0,0-.38-1,1.35,1.35,0,0,0-1-.43,1.79,1.79,0,0,0-.68.13,1.81,1.81,0,0,0-.5.33,1.6,1.6,0,0,0-.32.45,1.48,1.48,0,0,0-.13.55Z"/><path class="cls-2" d="M16.15,2.28h2.31V3.51h0a2.92,2.92,0,0,1,.87-1.07,2.23,2.23,0,0,1,1.28-.35H21a1.53,1.53,0,0,1,.36.07V4.33l-.48-.12h-.5a2.47,2.47,0,0,0-1,.19,1.44,1.44,0,0,0-.59.53,2,2,0,0,0-.27.82,8.39,8.39,0,0,0-.06,1V10H16.15Z"/><path class="cls-2" d="M21.85,2.28h2.21v1h0a2.32,2.32,0,0,1,.31-.44,2,2,0,0,1,.48-.4,3,3,0,0,1,.63-.28,2.19,2.19,0,0,1,.76-.11,3.16,3.16,0,0,1,1.42.27,2.12,2.12,0,0,1,.83.77,3.11,3.11,0,0,1,.41,1.15A9.13,9.13,0,0,1,29,5.72V10H26.73V5.51a2.1,2.1,0,0,0-.14-.66,1.14,1.14,0,0,0-.35-.49,1.17,1.17,0,0,0-.68-.19,1.39,1.39,0,0,0-.72.17,1.14,1.14,0,0,0-.43.44,2,2,0,0,0-.19.63,4.33,4.33,0,0,0,0,.72V10H21.85Z"/><path class="cls-2" d="M37.05,8.63a3.56,3.56,0,0,1-1.4,1.12,4.08,4.08,0,0,1-1.75.4,4.3,4.3,0,0,1-1.62-.29A3.82,3.82,0,0,1,31,9.05a4,4,0,0,1-.88-1.27,4.13,4.13,0,0,1-.32-1.66,4.13,4.13,0,0,1,.32-1.66A3.72,3.72,0,0,1,31,3.19a3.86,3.86,0,0,1,1.32-.82,4.72,4.72,0,0,1,1.62-.28,3.6,3.6,0,0,1,1.45.28,2.9,2.9,0,0,1,1.11.82,3.85,3.85,0,0,1,.7,1.27,5.21,5.21,0,0,1,.24,1.66v.74H32.06a1.83,1.83,0,0,0,.6,1.08,1.9,1.9,0,0,0,2.14.15,2.75,2.75,0,0,0,.69-.67ZM35.1,5.25a1.42,1.42,0,0,0-.38-1,1.35,1.35,0,0,0-1-.43A1.79,1.79,0,0,0,33,4a1.81,1.81,0,0,0-.5.33,1.6,1.6,0,0,0-.32.45,1.48,1.48,0,0,0-.13.55Z"/><path class="cls-2" d="M42.46,4.54a1.62,1.62,0,0,0-1.33-.65,1.26,1.26,0,0,0-.57.14.52.52,0,0,0-.28.49.46.46,0,0,0,.29.42,4.34,4.34,0,0,0,.72.24l.93.22a3.48,3.48,0,0,1,.94.37,2.16,2.16,0,0,1,.72.69,2,2,0,0,1,.29,1.16,2.31,2.31,0,0,1-.32,1.23,2.59,2.59,0,0,1-.81.77,3.32,3.32,0,0,1-1.1.41,6.13,6.13,0,0,1-1.21.12,5.64,5.64,0,0,1-1.58-.23,2.84,2.84,0,0,1-1.35-.81l1.39-1.6a2.26,2.26,0,0,0,.72.62,1.8,1.8,0,0,0,.91.22,2.18,2.18,0,0,0,.72-.12.43.43,0,0,0,.32-.44.47.47,0,0,0-.28-.45,3.07,3.07,0,0,0-.72-.25l-.94-.22A3.82,3.82,0,0,1,39,6.51a2,2,0,0,1-.72-.67A2.13,2.13,0,0,1,38,4.68a2.37,2.37,0,0,1,1-2,3,3,0,0,1,1-.46,4.48,4.48,0,0,1,1.15-.15,5,5,0,0,1,1.49.22,2.69,2.69,0,0,1,1.27.79Z"/><path class="cls-3" d="M50,4.17H48V6.73a5.61,5.61,0,0,0,0,.58,1,1,0,0,0,.14.45.63.63,0,0,0,.33.29,1.35,1.35,0,0,0,.59.11h.48A.9.9,0,0,0,50,7.94v2a3.21,3.21,0,0,1-.8.19,7.34,7.34,0,0,1-.81,0A4.16,4.16,0,0,1,47.28,10a2.5,2.5,0,0,1-.86-.4,1.74,1.74,0,0,1-.57-.72,2.47,2.47,0,0,1-.21-1.07V4.17H44.17V2.28h1.47V.86L47.94,0V2.28h2Z"/><path class="cls-1" d="M42.68,8.69h1.26l-3.49,9.78L39.09,18Z"/><path class="cls-1" d="M43.93,14.93l3.8-1.49h0L43.93,12V10.29L50,12.67v1.51l-6.07,2.38Z"/><path class="cls-4" d="M3.51,10.58h1.8v.94h0A2.25,2.25,0,0,1,6,10.71a1.77,1.77,0,0,1,1-.27h.31a1.35,1.35,0,0,1,.29.05v1.64A2.34,2.34,0,0,0,7.22,12H6.83a1.88,1.88,0,0,0-.81.15,1.08,1.08,0,0,0-.47.4,1.69,1.69,0,0,0-.21.62,5.21,5.21,0,0,0,0,.79v2.43H3.51Z"/><path class="cls-4" d="M14,16.41H12.28v-.79h0A1.49,1.49,0,0,1,12,16a1.52,1.52,0,0,1-.37.3,2.13,2.13,0,0,1-.49.21,2,2,0,0,1-.6.09,2.5,2.5,0,0,1-1.11-.21,1.68,1.68,0,0,1-.66-.58,2.16,2.16,0,0,1-.31-.88,8,8,0,0,1-.08-1.09V10.58h1.8V14a1.72,1.72,0,0,0,.11.5.75.75,0,0,0,.81.51,1.09,1.09,0,0,0,.56-.12,1,1,0,0,0,.33-.34,1.29,1.29,0,0,0,.15-.47,5,5,0,0,0,0-.55V10.58H14Z"/><path class="cls-4" d="M20.91,16.41H19.26v-.76h0A1.52,1.52,0,0,1,19,16a1.73,1.73,0,0,1-.41.3,2.28,2.28,0,0,1-.51.21,1.9,1.9,0,0,1-.58.09,3,3,0,0,1-1.18-.22,2.67,2.67,0,0,1-1.49-1.58,3.57,3.57,0,0,1-.2-1.21,3.86,3.86,0,0,1,.18-1.17,3,3,0,0,1,.53-1,2.55,2.55,0,0,1,.84-.69,2.24,2.24,0,0,1,1.11-.26,3.39,3.39,0,0,1,1.05.17,1.7,1.7,0,0,1,.8.6h0v-3l1.8-.89ZM19.26,13.5a1.5,1.5,0,0,0-.38-1.07A1.37,1.37,0,0,0,17.82,12a1.39,1.39,0,0,0-1.06.41,1.5,1.5,0,0,0-.38,1.07,1.5,1.5,0,0,0,.38,1.07,1.36,1.36,0,0,0,1.06.4,1.4,1.4,0,0,0,1.06-.4A1.54,1.54,0,0,0,19.26,13.5Z"/><path class="cls-4" d="M21.34,14.62l3-2.6H21.42V10.58h5v1.73L23.29,15h3.24v1.44H21.34Z"/><path class="cls-4" d="M26.92,12.89l1.75-1.35v4.9H26.92Z"/><path class="cls-4" d="M35,15.34a3,3,0,0,1-1.09.85,3.25,3.25,0,0,1-1.37.3,3.69,3.69,0,0,1-1.27-.22,3.05,3.05,0,0,1-1-.62,2.89,2.89,0,0,1-.69-1,3.3,3.3,0,0,1,0-2.52,2.89,2.89,0,0,1,.69-1,3.05,3.05,0,0,1,1-.62,3.93,3.93,0,0,1,1.27-.21,2.91,2.91,0,0,1,1.13.21,2.44,2.44,0,0,1,.87.62,2.7,2.7,0,0,1,.54,1,3.85,3.85,0,0,1,.19,1.26V14H31.13a1.4,1.4,0,0,0,.47.82,1.31,1.31,0,0,0,.89.31,1.34,1.34,0,0,0,.75-.2,2,2,0,0,0,.53-.51Zm-1.52-2.57a1.08,1.08,0,0,0-1.11-1.11,1.39,1.39,0,0,0-.53.1,1.24,1.24,0,0,0-.39.25,1.2,1.2,0,0,0-.25.34,1.23,1.23,0,0,0-.1.42Z"/><path class="cls-4" d="M39.79,12.39A1.12,1.12,0,0,0,38.9,12a1.39,1.39,0,0,0-1.06.41,1.5,1.5,0,0,0-.38,1.07,1.56,1.56,0,0,0,.38,1.07,1.4,1.4,0,0,0,1.06.4,1.06,1.06,0,0,0,.52-.13,1.56,1.56,0,0,0,.37-.31L41,15.71a2.19,2.19,0,0,1-1,.6,3.37,3.37,0,0,1-1.09.18,3.59,3.59,0,0,1-1.26-.22,3.05,3.05,0,0,1-1-.62,2.76,2.76,0,0,1-.69-1,3.06,3.06,0,0,1-.26-1.26A2.91,2.91,0,0,1,36,12.13a2.76,2.76,0,0,1,.69-1,3.05,3.05,0,0,1,1-.62,3.83,3.83,0,0,1,1.26-.21,3.65,3.65,0,0,1,1.09.17,2.26,2.26,0,0,1,1,.61Z"/><polygon class="cls-4" points="26.92 12.03 28.68 10.69 28.68 10.58 26.92 10.58 26.92 12.03"/></g></g></g></g></svg>